<mxfile host="app.diagrams.net" modified="2023-05-14T11:22:50.934Z" agent="Mozilla/5.0 (Macintosh; Intel Mac OS X 10_15_7) AppleWebKit/537.36 (KHTML, like Gecko) Chrome/113.0.0.0 Safari/537.36" etag="YH8S3NwsvP9G3eBRAXu9" version="21.1.8" type="device">
  <diagram id="C5RBs43oDa-KdzZeNtuy" name="Page-1">
    <mxGraphModel dx="3774" dy="1440" grid="1" gridSize="10" guides="1" tooltips="1" connect="1" arrows="1" fold="1" page="1" pageScale="1" pageWidth="827" pageHeight="1169" math="0" shadow="0">
      <root>
        <mxCell id="WIyWlLk6GJQsqaUBKTNV-0" />
        <mxCell id="WIyWlLk6GJQsqaUBKTNV-1" parent="WIyWlLk6GJQsqaUBKTNV-0" />
        <mxCell id="Zy91GWlYB5x9aroPrlM9-0" value="Address_book" style="swimlane;whiteSpace=wrap;html=1;" vertex="1" parent="WIyWlLk6GJQsqaUBKTNV-1">
          <mxGeometry x="-1590" y="470" width="980" height="940" as="geometry" />
        </mxCell>
        <mxCell id="Zy91GWlYB5x9aroPrlM9-1" value="Field" style="swimlane;fontStyle=0;childLayout=stackLayout;horizontal=1;startSize=30;horizontalStack=0;resizeParent=1;resizeParentMax=0;resizeLast=0;collapsible=1;marginBottom=0;whiteSpace=wrap;html=1;" vertex="1" parent="Zy91GWlYB5x9aroPrlM9-0">
          <mxGeometry x="404" y="40" width="140" height="120" as="geometry" />
        </mxCell>
        <mxCell id="Zy91GWlYB5x9aroPrlM9-2" value="-&amp;nbsp;required" style="text;strokeColor=none;fillColor=none;align=left;verticalAlign=middle;spacingLeft=4;spacingRight=4;overflow=hidden;points=[[0,0.5],[1,0.5]];portConstraint=eastwest;rotatable=0;whiteSpace=wrap;html=1;" vertex="1" parent="Zy91GWlYB5x9aroPrlM9-1">
          <mxGeometry y="30" width="140" height="30" as="geometry" />
        </mxCell>
        <mxCell id="Zy91GWlYB5x9aroPrlM9-3" value="-&amp;nbsp;multi_field" style="text;strokeColor=none;fillColor=none;align=left;verticalAlign=middle;spacingLeft=4;spacingRight=4;overflow=hidden;points=[[0,0.5],[1,0.5]];portConstraint=eastwest;rotatable=0;whiteSpace=wrap;html=1;" vertex="1" parent="Zy91GWlYB5x9aroPrlM9-1">
          <mxGeometry y="60" width="140" height="30" as="geometry" />
        </mxCell>
        <mxCell id="Zy91GWlYB5x9aroPrlM9-4" value="-&amp;nbsp;value" style="text;strokeColor=none;fillColor=none;align=left;verticalAlign=middle;spacingLeft=4;spacingRight=4;overflow=hidden;points=[[0,0.5],[1,0.5]];portConstraint=eastwest;rotatable=0;whiteSpace=wrap;html=1;" vertex="1" parent="Zy91GWlYB5x9aroPrlM9-1">
          <mxGeometry y="90" width="140" height="30" as="geometry" />
        </mxCell>
        <mxCell id="Zy91GWlYB5x9aroPrlM9-5" value="" style="endArrow=classic;html=1;rounded=0;" edge="1" parent="Zy91GWlYB5x9aroPrlM9-0">
          <mxGeometry width="50" height="50" relative="1" as="geometry">
            <mxPoint x="154" y="200" as="sourcePoint" />
            <mxPoint x="474" y="160" as="targetPoint" />
            <Array as="points">
              <mxPoint x="474" y="200" />
            </Array>
          </mxGeometry>
        </mxCell>
        <mxCell id="Zy91GWlYB5x9aroPrlM9-6" value="" style="endArrow=none;html=1;rounded=0;" edge="1" parent="Zy91GWlYB5x9aroPrlM9-0">
          <mxGeometry width="50" height="50" relative="1" as="geometry">
            <mxPoint x="154" y="200" as="sourcePoint" />
            <mxPoint x="154" y="240" as="targetPoint" />
          </mxGeometry>
        </mxCell>
        <mxCell id="Zy91GWlYB5x9aroPrlM9-7" value="Name" style="swimlane;fontStyle=0;childLayout=stackLayout;horizontal=1;startSize=30;horizontalStack=0;resizeParent=1;resizeParentMax=0;resizeLast=0;collapsible=1;marginBottom=0;whiteSpace=wrap;html=1;" vertex="1" parent="Zy91GWlYB5x9aroPrlM9-0">
          <mxGeometry x="84" y="240" width="140" height="90" as="geometry" />
        </mxCell>
        <mxCell id="Zy91GWlYB5x9aroPrlM9-8" value="- init()" style="text;strokeColor=none;fillColor=none;align=left;verticalAlign=middle;spacingLeft=4;spacingRight=4;overflow=hidden;points=[[0,0.5],[1,0.5]];portConstraint=eastwest;rotatable=0;whiteSpace=wrap;html=1;" vertex="1" parent="Zy91GWlYB5x9aroPrlM9-7">
          <mxGeometry y="30" width="140" height="30" as="geometry" />
        </mxCell>
        <mxCell id="Zy91GWlYB5x9aroPrlM9-9" value="+ value" style="text;strokeColor=none;fillColor=none;align=left;verticalAlign=middle;spacingLeft=4;spacingRight=4;overflow=hidden;points=[[0,0.5],[1,0.5]];portConstraint=eastwest;rotatable=0;whiteSpace=wrap;html=1;" vertex="1" parent="Zy91GWlYB5x9aroPrlM9-7">
          <mxGeometry y="60" width="140" height="30" as="geometry" />
        </mxCell>
        <mxCell id="Zy91GWlYB5x9aroPrlM9-10" value="Phone" style="swimlane;fontStyle=0;childLayout=stackLayout;horizontal=1;startSize=30;horizontalStack=0;resizeParent=1;resizeParentMax=0;resizeLast=0;collapsible=1;marginBottom=0;whiteSpace=wrap;html=1;" vertex="1" parent="Zy91GWlYB5x9aroPrlM9-0">
          <mxGeometry x="245" y="240" width="161" height="120" as="geometry" />
        </mxCell>
        <mxCell id="Zy91GWlYB5x9aroPrlM9-11" value="- init()" style="text;strokeColor=none;fillColor=none;align=left;verticalAlign=middle;spacingLeft=4;spacingRight=4;overflow=hidden;points=[[0,0.5],[1,0.5]];portConstraint=eastwest;rotatable=0;whiteSpace=wrap;html=1;" vertex="1" parent="Zy91GWlYB5x9aroPrlM9-10">
          <mxGeometry y="30" width="161" height="30" as="geometry" />
        </mxCell>
        <mxCell id="Zy91GWlYB5x9aroPrlM9-12" value="- sanitize_phone_number()" style="text;strokeColor=none;fillColor=none;align=left;verticalAlign=middle;spacingLeft=4;spacingRight=4;overflow=hidden;points=[[0,0.5],[1,0.5]];portConstraint=eastwest;rotatable=0;whiteSpace=wrap;html=1;" vertex="1" parent="Zy91GWlYB5x9aroPrlM9-10">
          <mxGeometry y="60" width="161" height="30" as="geometry" />
        </mxCell>
        <mxCell id="Zy91GWlYB5x9aroPrlM9-13" value="+ value" style="text;strokeColor=none;fillColor=none;align=left;verticalAlign=middle;spacingLeft=4;spacingRight=4;overflow=hidden;points=[[0,0.5],[1,0.5]];portConstraint=eastwest;rotatable=0;whiteSpace=wrap;html=1;" vertex="1" parent="Zy91GWlYB5x9aroPrlM9-10">
          <mxGeometry y="90" width="161" height="30" as="geometry" />
        </mxCell>
        <mxCell id="Zy91GWlYB5x9aroPrlM9-14" value="" style="endArrow=none;html=1;rounded=0;entryX=0.5;entryY=0;entryDx=0;entryDy=0;" edge="1" parent="Zy91GWlYB5x9aroPrlM9-0" target="Zy91GWlYB5x9aroPrlM9-10">
          <mxGeometry width="50" height="50" relative="1" as="geometry">
            <mxPoint x="326" y="200" as="sourcePoint" />
            <mxPoint x="164" y="250" as="targetPoint" />
          </mxGeometry>
        </mxCell>
        <mxCell id="Zy91GWlYB5x9aroPrlM9-15" value="Birthday" style="swimlane;fontStyle=0;childLayout=stackLayout;horizontal=1;startSize=30;horizontalStack=0;resizeParent=1;resizeParentMax=0;resizeLast=0;collapsible=1;marginBottom=0;whiteSpace=wrap;html=1;" vertex="1" parent="Zy91GWlYB5x9aroPrlM9-0">
          <mxGeometry x="424" y="240" width="140" height="90" as="geometry" />
        </mxCell>
        <mxCell id="Zy91GWlYB5x9aroPrlM9-16" value="- init()" style="text;strokeColor=none;fillColor=none;align=left;verticalAlign=middle;spacingLeft=4;spacingRight=4;overflow=hidden;points=[[0,0.5],[1,0.5]];portConstraint=eastwest;rotatable=0;whiteSpace=wrap;html=1;" vertex="1" parent="Zy91GWlYB5x9aroPrlM9-15">
          <mxGeometry y="30" width="140" height="30" as="geometry" />
        </mxCell>
        <mxCell id="Zy91GWlYB5x9aroPrlM9-17" value="+ value" style="text;strokeColor=none;fillColor=none;align=left;verticalAlign=middle;spacingLeft=4;spacingRight=4;overflow=hidden;points=[[0,0.5],[1,0.5]];portConstraint=eastwest;rotatable=0;whiteSpace=wrap;html=1;" vertex="1" parent="Zy91GWlYB5x9aroPrlM9-15">
          <mxGeometry y="60" width="140" height="30" as="geometry" />
        </mxCell>
        <mxCell id="Zy91GWlYB5x9aroPrlM9-18" value="" style="endArrow=none;html=1;rounded=0;" edge="1" parent="Zy91GWlYB5x9aroPrlM9-0">
          <mxGeometry width="50" height="50" relative="1" as="geometry">
            <mxPoint x="474" y="200" as="sourcePoint" />
            <mxPoint x="814" y="200" as="targetPoint" />
          </mxGeometry>
        </mxCell>
        <mxCell id="Zy91GWlYB5x9aroPrlM9-19" value="" style="endArrow=none;html=1;rounded=0;exitX=0.5;exitY=0;exitDx=0;exitDy=0;" edge="1" parent="Zy91GWlYB5x9aroPrlM9-0" source="Zy91GWlYB5x9aroPrlM9-15">
          <mxGeometry width="50" height="50" relative="1" as="geometry">
            <mxPoint x="464" y="170" as="sourcePoint" />
            <mxPoint x="494" y="200" as="targetPoint" />
          </mxGeometry>
        </mxCell>
        <mxCell id="Zy91GWlYB5x9aroPrlM9-20" value="Email" style="swimlane;fontStyle=0;childLayout=stackLayout;horizontal=1;startSize=30;horizontalStack=0;resizeParent=1;resizeParentMax=0;resizeLast=0;collapsible=1;marginBottom=0;whiteSpace=wrap;html=1;" vertex="1" parent="Zy91GWlYB5x9aroPrlM9-0">
          <mxGeometry x="584" y="240" width="140" height="90" as="geometry" />
        </mxCell>
        <mxCell id="Zy91GWlYB5x9aroPrlM9-21" value="- init()" style="text;strokeColor=none;fillColor=none;align=left;verticalAlign=middle;spacingLeft=4;spacingRight=4;overflow=hidden;points=[[0,0.5],[1,0.5]];portConstraint=eastwest;rotatable=0;whiteSpace=wrap;html=1;" vertex="1" parent="Zy91GWlYB5x9aroPrlM9-20">
          <mxGeometry y="30" width="140" height="30" as="geometry" />
        </mxCell>
        <mxCell id="Zy91GWlYB5x9aroPrlM9-22" value="+ value" style="text;strokeColor=none;fillColor=none;align=left;verticalAlign=middle;spacingLeft=4;spacingRight=4;overflow=hidden;points=[[0,0.5],[1,0.5]];portConstraint=eastwest;rotatable=0;whiteSpace=wrap;html=1;" vertex="1" parent="Zy91GWlYB5x9aroPrlM9-20">
          <mxGeometry y="60" width="140" height="30" as="geometry" />
        </mxCell>
        <mxCell id="Zy91GWlYB5x9aroPrlM9-23" value="" style="endArrow=none;html=1;rounded=0;exitX=0.5;exitY=0;exitDx=0;exitDy=0;" edge="1" parent="Zy91GWlYB5x9aroPrlM9-0" source="Zy91GWlYB5x9aroPrlM9-20">
          <mxGeometry width="50" height="50" relative="1" as="geometry">
            <mxPoint x="504" y="250" as="sourcePoint" />
            <mxPoint x="654" y="200" as="targetPoint" />
          </mxGeometry>
        </mxCell>
        <mxCell id="Zy91GWlYB5x9aroPrlM9-24" value="AdressHome" style="swimlane;fontStyle=0;childLayout=stackLayout;horizontal=1;startSize=30;horizontalStack=0;resizeParent=1;resizeParentMax=0;resizeLast=0;collapsible=1;marginBottom=0;whiteSpace=wrap;html=1;" vertex="1" parent="Zy91GWlYB5x9aroPrlM9-0">
          <mxGeometry x="744" y="240" width="140" height="90" as="geometry" />
        </mxCell>
        <mxCell id="Zy91GWlYB5x9aroPrlM9-25" value="- init()" style="text;strokeColor=none;fillColor=none;align=left;verticalAlign=middle;spacingLeft=4;spacingRight=4;overflow=hidden;points=[[0,0.5],[1,0.5]];portConstraint=eastwest;rotatable=0;whiteSpace=wrap;html=1;" vertex="1" parent="Zy91GWlYB5x9aroPrlM9-24">
          <mxGeometry y="30" width="140" height="30" as="geometry" />
        </mxCell>
        <mxCell id="Zy91GWlYB5x9aroPrlM9-26" value="+ value" style="text;strokeColor=none;fillColor=none;align=left;verticalAlign=middle;spacingLeft=4;spacingRight=4;overflow=hidden;points=[[0,0.5],[1,0.5]];portConstraint=eastwest;rotatable=0;whiteSpace=wrap;html=1;" vertex="1" parent="Zy91GWlYB5x9aroPrlM9-24">
          <mxGeometry y="60" width="140" height="30" as="geometry" />
        </mxCell>
        <mxCell id="Zy91GWlYB5x9aroPrlM9-27" value="" style="endArrow=none;html=1;rounded=0;exitX=0.5;exitY=0;exitDx=0;exitDy=0;" edge="1" parent="Zy91GWlYB5x9aroPrlM9-0" source="Zy91GWlYB5x9aroPrlM9-24">
          <mxGeometry width="50" height="50" relative="1" as="geometry">
            <mxPoint x="664" y="250" as="sourcePoint" />
            <mxPoint x="814" y="200" as="targetPoint" />
          </mxGeometry>
        </mxCell>
        <mxCell id="Zy91GWlYB5x9aroPrlM9-28" value="Record" style="swimlane;fontStyle=0;childLayout=stackLayout;horizontal=1;startSize=30;horizontalStack=0;resizeParent=1;resizeParentMax=0;resizeLast=0;collapsible=1;marginBottom=0;whiteSpace=wrap;html=1;" vertex="1" parent="Zy91GWlYB5x9aroPrlM9-0">
          <mxGeometry x="130" y="380" width="140" height="390" as="geometry" />
        </mxCell>
        <mxCell id="Zy91GWlYB5x9aroPrlM9-29" value="+ name" style="text;strokeColor=none;fillColor=none;align=left;verticalAlign=middle;spacingLeft=4;spacingRight=4;overflow=hidden;points=[[0,0.5],[1,0.5]];portConstraint=eastwest;rotatable=0;whiteSpace=wrap;html=1;" vertex="1" parent="Zy91GWlYB5x9aroPrlM9-28">
          <mxGeometry y="30" width="140" height="30" as="geometry" />
        </mxCell>
        <mxCell id="Zy91GWlYB5x9aroPrlM9-30" value="+ phones" style="text;strokeColor=none;fillColor=none;align=left;verticalAlign=middle;spacingLeft=4;spacingRight=4;overflow=hidden;points=[[0,0.5],[1,0.5]];portConstraint=eastwest;rotatable=0;whiteSpace=wrap;html=1;" vertex="1" parent="Zy91GWlYB5x9aroPrlM9-28">
          <mxGeometry y="60" width="140" height="30" as="geometry" />
        </mxCell>
        <mxCell id="Zy91GWlYB5x9aroPrlM9-31" value="+ Birthday" style="text;strokeColor=none;fillColor=none;align=left;verticalAlign=middle;spacingLeft=4;spacingRight=4;overflow=hidden;points=[[0,0.5],[1,0.5]];portConstraint=eastwest;rotatable=0;whiteSpace=wrap;html=1;" vertex="1" parent="Zy91GWlYB5x9aroPrlM9-28">
          <mxGeometry y="90" width="140" height="30" as="geometry" />
        </mxCell>
        <mxCell id="Zy91GWlYB5x9aroPrlM9-32" value="+ Email" style="text;strokeColor=none;fillColor=none;align=left;verticalAlign=middle;spacingLeft=4;spacingRight=4;overflow=hidden;points=[[0,0.5],[1,0.5]];portConstraint=eastwest;rotatable=0;whiteSpace=wrap;html=1;" vertex="1" parent="Zy91GWlYB5x9aroPrlM9-28">
          <mxGeometry y="120" width="140" height="30" as="geometry" />
        </mxCell>
        <mxCell id="Zy91GWlYB5x9aroPrlM9-33" value="+ Adress_home" style="text;strokeColor=none;fillColor=none;align=left;verticalAlign=middle;spacingLeft=4;spacingRight=4;overflow=hidden;points=[[0,0.5],[1,0.5]];portConstraint=eastwest;rotatable=0;whiteSpace=wrap;html=1;" vertex="1" parent="Zy91GWlYB5x9aroPrlM9-28">
          <mxGeometry y="150" width="140" height="30" as="geometry" />
        </mxCell>
        <mxCell id="Zy91GWlYB5x9aroPrlM9-34" value="+&amp;nbsp;edit_phone()" style="text;strokeColor=none;fillColor=none;align=left;verticalAlign=middle;spacingLeft=4;spacingRight=4;overflow=hidden;points=[[0,0.5],[1,0.5]];portConstraint=eastwest;rotatable=0;whiteSpace=wrap;html=1;" vertex="1" parent="Zy91GWlYB5x9aroPrlM9-28">
          <mxGeometry y="180" width="140" height="30" as="geometry" />
        </mxCell>
        <mxCell id="Zy91GWlYB5x9aroPrlM9-35" value="+&amp;nbsp;del_phone()" style="text;strokeColor=none;fillColor=none;align=left;verticalAlign=middle;spacingLeft=4;spacingRight=4;overflow=hidden;points=[[0,0.5],[1,0.5]];portConstraint=eastwest;rotatable=0;whiteSpace=wrap;html=1;" vertex="1" parent="Zy91GWlYB5x9aroPrlM9-28">
          <mxGeometry y="210" width="140" height="30" as="geometry" />
        </mxCell>
        <mxCell id="Zy91GWlYB5x9aroPrlM9-36" value="+&amp;nbsp;add_phone()" style="text;strokeColor=none;fillColor=none;align=left;verticalAlign=middle;spacingLeft=4;spacingRight=4;overflow=hidden;points=[[0,0.5],[1,0.5]];portConstraint=eastwest;rotatable=0;whiteSpace=wrap;html=1;" vertex="1" parent="Zy91GWlYB5x9aroPrlM9-28">
          <mxGeometry y="240" width="140" height="30" as="geometry" />
        </mxCell>
        <mxCell id="Zy91GWlYB5x9aroPrlM9-37" value="+&amp;nbsp;days_to_birthday()" style="text;strokeColor=none;fillColor=none;align=left;verticalAlign=middle;spacingLeft=4;spacingRight=4;overflow=hidden;points=[[0,0.5],[1,0.5]];portConstraint=eastwest;rotatable=0;whiteSpace=wrap;html=1;" vertex="1" parent="Zy91GWlYB5x9aroPrlM9-28">
          <mxGeometry y="270" width="140" height="30" as="geometry" />
        </mxCell>
        <mxCell id="Zy91GWlYB5x9aroPrlM9-38" value="+ find_phone()" style="text;strokeColor=none;fillColor=none;align=left;verticalAlign=middle;spacingLeft=4;spacingRight=4;overflow=hidden;points=[[0,0.5],[1,0.5]];portConstraint=eastwest;rotatable=0;whiteSpace=wrap;html=1;" vertex="1" parent="Zy91GWlYB5x9aroPrlM9-28">
          <mxGeometry y="300" width="140" height="30" as="geometry" />
        </mxCell>
        <mxCell id="Zy91GWlYB5x9aroPrlM9-39" value="- str()" style="text;strokeColor=none;fillColor=none;align=left;verticalAlign=middle;spacingLeft=4;spacingRight=4;overflow=hidden;points=[[0,0.5],[1,0.5]];portConstraint=eastwest;rotatable=0;whiteSpace=wrap;html=1;" vertex="1" parent="Zy91GWlYB5x9aroPrlM9-28">
          <mxGeometry y="330" width="140" height="30" as="geometry" />
        </mxCell>
        <mxCell id="Zy91GWlYB5x9aroPrlM9-40" value="- init()" style="text;strokeColor=none;fillColor=none;align=left;verticalAlign=middle;spacingLeft=4;spacingRight=4;overflow=hidden;points=[[0,0.5],[1,0.5]];portConstraint=eastwest;rotatable=0;whiteSpace=wrap;html=1;" vertex="1" parent="Zy91GWlYB5x9aroPrlM9-28">
          <mxGeometry y="360" width="140" height="30" as="geometry" />
        </mxCell>
        <mxCell id="Zy91GWlYB5x9aroPrlM9-41" value="" style="endArrow=classic;html=1;rounded=0;exitX=0;exitY=0.5;exitDx=0;exitDy=0;entryX=0;entryY=0.5;entryDx=0;entryDy=0;" edge="1" parent="Zy91GWlYB5x9aroPrlM9-0" source="Zy91GWlYB5x9aroPrlM9-29" target="Zy91GWlYB5x9aroPrlM9-9">
          <mxGeometry width="50" height="50" relative="1" as="geometry">
            <mxPoint x="360" y="550" as="sourcePoint" />
            <mxPoint x="410" y="500" as="targetPoint" />
            <Array as="points">
              <mxPoint x="70" y="425" />
              <mxPoint x="70" y="320" />
            </Array>
          </mxGeometry>
        </mxCell>
        <mxCell id="Zy91GWlYB5x9aroPrlM9-42" value="" style="endArrow=classic;html=1;rounded=0;exitX=1;exitY=0.5;exitDx=0;exitDy=0;entryX=1;entryY=0.5;entryDx=0;entryDy=0;" edge="1" parent="Zy91GWlYB5x9aroPrlM9-0" source="Zy91GWlYB5x9aroPrlM9-30" target="Zy91GWlYB5x9aroPrlM9-13">
          <mxGeometry width="50" height="50" relative="1" as="geometry">
            <mxPoint x="360" y="550" as="sourcePoint" />
            <mxPoint x="310" y="360" as="targetPoint" />
            <Array as="points">
              <mxPoint x="420" y="455" />
              <mxPoint x="420" y="345" />
            </Array>
          </mxGeometry>
        </mxCell>
        <mxCell id="Zy91GWlYB5x9aroPrlM9-43" value="" style="endArrow=classic;html=1;rounded=0;exitX=1;exitY=0.5;exitDx=0;exitDy=0;entryX=1;entryY=0.5;entryDx=0;entryDy=0;" edge="1" parent="Zy91GWlYB5x9aroPrlM9-0" source="Zy91GWlYB5x9aroPrlM9-31" target="Zy91GWlYB5x9aroPrlM9-17">
          <mxGeometry width="50" height="50" relative="1" as="geometry">
            <mxPoint x="360" y="550" as="sourcePoint" />
            <mxPoint x="560" y="340" as="targetPoint" />
            <Array as="points">
              <mxPoint x="580" y="480" />
              <mxPoint x="580" y="315" />
            </Array>
          </mxGeometry>
        </mxCell>
        <mxCell id="Zy91GWlYB5x9aroPrlM9-44" value="" style="endArrow=classic;html=1;rounded=0;exitX=1;exitY=0.5;exitDx=0;exitDy=0;entryX=1;entryY=0.5;entryDx=0;entryDy=0;" edge="1" parent="Zy91GWlYB5x9aroPrlM9-0" source="Zy91GWlYB5x9aroPrlM9-32" target="Zy91GWlYB5x9aroPrlM9-22">
          <mxGeometry width="50" height="50" relative="1" as="geometry">
            <mxPoint x="330" y="540" as="sourcePoint" />
            <mxPoint x="410" y="500" as="targetPoint" />
            <Array as="points">
              <mxPoint x="740" y="515" />
              <mxPoint x="740" y="315" />
            </Array>
          </mxGeometry>
        </mxCell>
        <mxCell id="Zy91GWlYB5x9aroPrlM9-45" value="" style="endArrow=classic;html=1;rounded=0;exitX=1;exitY=0.5;exitDx=0;exitDy=0;entryX=1;entryY=0.5;entryDx=0;entryDy=0;" edge="1" parent="Zy91GWlYB5x9aroPrlM9-0" source="Zy91GWlYB5x9aroPrlM9-33" target="Zy91GWlYB5x9aroPrlM9-26">
          <mxGeometry width="50" height="50" relative="1" as="geometry">
            <mxPoint x="360" y="550" as="sourcePoint" />
            <mxPoint x="410" y="500" as="targetPoint" />
            <Array as="points">
              <mxPoint x="890" y="540" />
              <mxPoint x="890" y="315" />
            </Array>
          </mxGeometry>
        </mxCell>
        <mxCell id="Zy91GWlYB5x9aroPrlM9-46" value="AddressBook" style="swimlane;fontStyle=0;childLayout=stackLayout;horizontal=1;startSize=30;horizontalStack=0;resizeParent=1;resizeParentMax=0;resizeLast=0;collapsible=1;marginBottom=0;whiteSpace=wrap;html=1;" vertex="1" parent="Zy91GWlYB5x9aroPrlM9-0">
          <mxGeometry x="360" y="560" width="140" height="330" as="geometry" />
        </mxCell>
        <mxCell id="Zy91GWlYB5x9aroPrlM9-47" value="- init()" style="text;strokeColor=none;fillColor=none;align=left;verticalAlign=middle;spacingLeft=4;spacingRight=4;overflow=hidden;points=[[0,0.5],[1,0.5]];portConstraint=eastwest;rotatable=0;whiteSpace=wrap;html=1;" vertex="1" parent="Zy91GWlYB5x9aroPrlM9-46">
          <mxGeometry y="30" width="140" height="30" as="geometry" />
        </mxCell>
        <mxCell id="Zy91GWlYB5x9aroPrlM9-48" value="-&amp;nbsp;record_exists()" style="text;strokeColor=none;fillColor=none;align=left;verticalAlign=middle;spacingLeft=4;spacingRight=4;overflow=hidden;points=[[0,0.5],[1,0.5]];portConstraint=eastwest;rotatable=0;whiteSpace=wrap;html=1;" vertex="1" parent="Zy91GWlYB5x9aroPrlM9-46">
          <mxGeometry y="60" width="140" height="30" as="geometry" />
        </mxCell>
        <mxCell id="Zy91GWlYB5x9aroPrlM9-49" value="- str()" style="text;strokeColor=none;fillColor=none;align=left;verticalAlign=middle;spacingLeft=4;spacingRight=4;overflow=hidden;points=[[0,0.5],[1,0.5]];portConstraint=eastwest;rotatable=0;whiteSpace=wrap;html=1;" vertex="1" parent="Zy91GWlYB5x9aroPrlM9-46">
          <mxGeometry y="90" width="140" height="30" as="geometry" />
        </mxCell>
        <mxCell id="Zy91GWlYB5x9aroPrlM9-50" value="- setitem()" style="text;strokeColor=none;fillColor=none;align=left;verticalAlign=middle;spacingLeft=4;spacingRight=4;overflow=hidden;points=[[0,0.5],[1,0.5]];portConstraint=eastwest;rotatable=0;whiteSpace=wrap;html=1;" vertex="1" parent="Zy91GWlYB5x9aroPrlM9-46">
          <mxGeometry y="120" width="140" height="30" as="geometry" />
        </mxCell>
        <mxCell id="Zy91GWlYB5x9aroPrlM9-51" value="+ add_record()" style="text;strokeColor=none;fillColor=none;align=left;verticalAlign=middle;spacingLeft=4;spacingRight=4;overflow=hidden;points=[[0,0.5],[1,0.5]];portConstraint=eastwest;rotatable=0;whiteSpace=wrap;html=1;" vertex="1" parent="Zy91GWlYB5x9aroPrlM9-46">
          <mxGeometry y="150" width="140" height="30" as="geometry" />
        </mxCell>
        <mxCell id="Zy91GWlYB5x9aroPrlM9-52" value="+ search_bd()" style="text;strokeColor=none;fillColor=none;align=left;verticalAlign=middle;spacingLeft=4;spacingRight=4;overflow=hidden;points=[[0,0.5],[1,0.5]];portConstraint=eastwest;rotatable=0;whiteSpace=wrap;html=1;" vertex="1" parent="Zy91GWlYB5x9aroPrlM9-46">
          <mxGeometry y="180" width="140" height="30" as="geometry" />
        </mxCell>
        <mxCell id="Zy91GWlYB5x9aroPrlM9-53" value="+ search()" style="text;strokeColor=none;fillColor=none;align=left;verticalAlign=middle;spacingLeft=4;spacingRight=4;overflow=hidden;points=[[0,0.5],[1,0.5]];portConstraint=eastwest;rotatable=0;whiteSpace=wrap;html=1;" vertex="1" parent="Zy91GWlYB5x9aroPrlM9-46">
          <mxGeometry y="210" width="140" height="30" as="geometry" />
        </mxCell>
        <mxCell id="Zy91GWlYB5x9aroPrlM9-54" value="+ iterator()" style="text;strokeColor=none;fillColor=none;align=left;verticalAlign=middle;spacingLeft=4;spacingRight=4;overflow=hidden;points=[[0,0.5],[1,0.5]];portConstraint=eastwest;rotatable=0;whiteSpace=wrap;html=1;" vertex="1" parent="Zy91GWlYB5x9aroPrlM9-46">
          <mxGeometry y="240" width="140" height="30" as="geometry" />
        </mxCell>
        <mxCell id="Zy91GWlYB5x9aroPrlM9-55" value="+ serialize()" style="text;strokeColor=none;fillColor=none;align=left;verticalAlign=middle;spacingLeft=4;spacingRight=4;overflow=hidden;points=[[0,0.5],[1,0.5]];portConstraint=eastwest;rotatable=0;whiteSpace=wrap;html=1;" vertex="1" parent="Zy91GWlYB5x9aroPrlM9-46">
          <mxGeometry y="270" width="140" height="30" as="geometry" />
        </mxCell>
        <mxCell id="Zy91GWlYB5x9aroPrlM9-56" value="+ deserialize()" style="text;strokeColor=none;fillColor=none;align=left;verticalAlign=middle;spacingLeft=4;spacingRight=4;overflow=hidden;points=[[0,0.5],[1,0.5]];portConstraint=eastwest;rotatable=0;whiteSpace=wrap;html=1;" vertex="1" parent="Zy91GWlYB5x9aroPrlM9-46">
          <mxGeometry y="300" width="140" height="30" as="geometry" />
        </mxCell>
        <mxCell id="Zy91GWlYB5x9aroPrlM9-57" value="" style="endArrow=classic;html=1;rounded=0;entryX=0.514;entryY=1;entryDx=0;entryDy=0;entryPerimeter=0;" edge="1" parent="Zy91GWlYB5x9aroPrlM9-0" target="Zy91GWlYB5x9aroPrlM9-56">
          <mxGeometry width="50" height="50" relative="1" as="geometry">
            <mxPoint x="224" y="770" as="sourcePoint" />
            <mxPoint x="420" y="640" as="targetPoint" />
            <Array as="points">
              <mxPoint x="224" y="920" />
              <mxPoint x="432" y="920" />
            </Array>
          </mxGeometry>
        </mxCell>
        <mxCell id="Zy91GWlYB5x9aroPrlM9-80" value="UserDict" style="swimlane;fontStyle=0;childLayout=stackLayout;horizontal=1;startSize=30;horizontalStack=0;resizeParent=1;resizeParentMax=0;resizeLast=0;collapsible=1;marginBottom=0;whiteSpace=wrap;html=1;" vertex="1" parent="Zy91GWlYB5x9aroPrlM9-0">
          <mxGeometry x="604" y="590" width="140" height="60" as="geometry" />
        </mxCell>
        <mxCell id="Zy91GWlYB5x9aroPrlM9-85" value="" style="endArrow=classic;html=1;rounded=0;entryX=0;entryY=0.25;entryDx=0;entryDy=0;exitX=1.003;exitY=0.034;exitDx=0;exitDy=0;exitPerimeter=0;" edge="1" parent="Zy91GWlYB5x9aroPrlM9-0" source="Zy91GWlYB5x9aroPrlM9-46" target="Zy91GWlYB5x9aroPrlM9-80">
          <mxGeometry width="50" height="50" relative="1" as="geometry">
            <mxPoint x="390" y="640" as="sourcePoint" />
            <mxPoint x="440" y="590" as="targetPoint" />
            <Array as="points">
              <mxPoint x="550" y="571" />
              <mxPoint x="550" y="605" />
            </Array>
          </mxGeometry>
        </mxCell>
        <mxCell id="Zy91GWlYB5x9aroPrlM9-58" value="main_menu" style="swimlane;whiteSpace=wrap;html=1;" vertex="1" parent="WIyWlLk6GJQsqaUBKTNV-1">
          <mxGeometry x="-1590" y="110" width="980" height="250" as="geometry" />
        </mxCell>
        <mxCell id="Zy91GWlYB5x9aroPrlM9-60" value="main" style="swimlane;fontStyle=0;childLayout=stackLayout;horizontal=1;startSize=30;horizontalStack=0;resizeParent=1;resizeParentMax=0;resizeLast=0;collapsible=1;marginBottom=0;whiteSpace=wrap;html=1;" vertex="1" parent="Zy91GWlYB5x9aroPrlM9-58">
          <mxGeometry x="384" y="70" width="180" height="120" as="geometry" />
        </mxCell>
        <mxCell id="Zy91GWlYB5x9aroPrlM9-61" value="start_arrange_dir()" style="text;strokeColor=none;fillColor=none;align=left;verticalAlign=middle;spacingLeft=4;spacingRight=4;overflow=hidden;points=[[0,0.5],[1,0.5]];portConstraint=eastwest;rotatable=0;whiteSpace=wrap;html=1;" vertex="1" parent="Zy91GWlYB5x9aroPrlM9-60">
          <mxGeometry y="30" width="180" height="30" as="geometry" />
        </mxCell>
        <mxCell id="Zy91GWlYB5x9aroPrlM9-62" value="sart_note_book()" style="text;strokeColor=none;fillColor=none;align=left;verticalAlign=middle;spacingLeft=4;spacingRight=4;overflow=hidden;points=[[0,0.5],[1,0.5]];portConstraint=eastwest;rotatable=0;whiteSpace=wrap;html=1;" vertex="1" parent="Zy91GWlYB5x9aroPrlM9-60">
          <mxGeometry y="60" width="180" height="30" as="geometry" />
        </mxCell>
        <mxCell id="Zy91GWlYB5x9aroPrlM9-63" value="start_address_book()" style="text;strokeColor=none;fillColor=none;align=left;verticalAlign=middle;spacingLeft=4;spacingRight=4;overflow=hidden;points=[[0,0.5],[1,0.5]];portConstraint=eastwest;rotatable=0;whiteSpace=wrap;html=1;" vertex="1" parent="Zy91GWlYB5x9aroPrlM9-60">
          <mxGeometry y="90" width="180" height="30" as="geometry" />
        </mxCell>
        <mxCell id="Zy91GWlYB5x9aroPrlM9-64" value="note_book" style="swimlane;whiteSpace=wrap;html=1;" vertex="1" parent="WIyWlLk6GJQsqaUBKTNV-1">
          <mxGeometry x="-1590" y="1450" width="980" height="720" as="geometry" />
        </mxCell>
        <mxCell id="Zy91GWlYB5x9aroPrlM9-77" value="Tag" style="swimlane;fontStyle=0;childLayout=stackLayout;horizontal=1;startSize=30;horizontalStack=0;resizeParent=1;resizeParentMax=0;resizeLast=0;collapsible=1;marginBottom=0;whiteSpace=wrap;html=1;" vertex="1" parent="Zy91GWlYB5x9aroPrlM9-64">
          <mxGeometry x="370" y="360" width="140" height="90" as="geometry" />
        </mxCell>
        <mxCell id="Zy91GWlYB5x9aroPrlM9-78" value="+ add_notes()" style="text;strokeColor=none;fillColor=none;align=left;verticalAlign=middle;spacingLeft=4;spacingRight=4;overflow=hidden;points=[[0,0.5],[1,0.5]];portConstraint=eastwest;rotatable=0;whiteSpace=wrap;html=1;" vertex="1" parent="Zy91GWlYB5x9aroPrlM9-77">
          <mxGeometry y="30" width="140" height="30" as="geometry" />
        </mxCell>
        <mxCell id="Zy91GWlYB5x9aroPrlM9-79" value="+ note" style="text;strokeColor=none;fillColor=none;align=left;verticalAlign=middle;spacingLeft=4;spacingRight=4;overflow=hidden;points=[[0,0.5],[1,0.5]];portConstraint=eastwest;rotatable=0;whiteSpace=wrap;html=1;" vertex="1" parent="Zy91GWlYB5x9aroPrlM9-77">
          <mxGeometry y="60" width="140" height="30" as="geometry" />
        </mxCell>
        <mxCell id="Zy91GWlYB5x9aroPrlM9-92" value="Note" style="swimlane;fontStyle=0;childLayout=stackLayout;horizontal=1;startSize=30;horizontalStack=0;resizeParent=1;resizeParentMax=0;resizeLast=0;collapsible=1;marginBottom=0;whiteSpace=wrap;html=1;" vertex="1" parent="Zy91GWlYB5x9aroPrlM9-64">
          <mxGeometry x="280" y="190" width="140" height="120" as="geometry" />
        </mxCell>
        <mxCell id="Zy91GWlYB5x9aroPrlM9-93" value="+ title" style="text;strokeColor=none;fillColor=none;align=left;verticalAlign=middle;spacingLeft=4;spacingRight=4;overflow=hidden;points=[[0,0.5],[1,0.5]];portConstraint=eastwest;rotatable=0;whiteSpace=wrap;html=1;" vertex="1" parent="Zy91GWlYB5x9aroPrlM9-92">
          <mxGeometry y="30" width="140" height="30" as="geometry" />
        </mxCell>
        <mxCell id="Zy91GWlYB5x9aroPrlM9-105" value="+ content" style="text;strokeColor=none;fillColor=none;align=left;verticalAlign=middle;spacingLeft=4;spacingRight=4;overflow=hidden;points=[[0,0.5],[1,0.5]];portConstraint=eastwest;rotatable=0;whiteSpace=wrap;html=1;" vertex="1" parent="Zy91GWlYB5x9aroPrlM9-92">
          <mxGeometry y="60" width="140" height="30" as="geometry" />
        </mxCell>
        <mxCell id="Zy91GWlYB5x9aroPrlM9-94" value="+ id" style="text;strokeColor=none;fillColor=none;align=left;verticalAlign=middle;spacingLeft=4;spacingRight=4;overflow=hidden;points=[[0,0.5],[1,0.5]];portConstraint=eastwest;rotatable=0;whiteSpace=wrap;html=1;" vertex="1" parent="Zy91GWlYB5x9aroPrlM9-92">
          <mxGeometry y="90" width="140" height="30" as="geometry" />
        </mxCell>
        <mxCell id="Zy91GWlYB5x9aroPrlM9-89" value="Titlle" style="swimlane;fontStyle=0;childLayout=stackLayout;horizontal=1;startSize=30;horizontalStack=0;resizeParent=1;resizeParentMax=0;resizeLast=0;collapsible=1;marginBottom=0;whiteSpace=wrap;html=1;" vertex="1" parent="Zy91GWlYB5x9aroPrlM9-64">
          <mxGeometry x="710" y="360" width="140" height="60" as="geometry" />
        </mxCell>
        <mxCell id="Zy91GWlYB5x9aroPrlM9-86" value="Contetn" style="swimlane;fontStyle=0;childLayout=stackLayout;horizontal=1;startSize=30;horizontalStack=0;resizeParent=1;resizeParentMax=0;resizeLast=0;collapsible=1;marginBottom=0;whiteSpace=wrap;html=1;" vertex="1" parent="Zy91GWlYB5x9aroPrlM9-64">
          <mxGeometry x="540" y="360" width="140" height="60" as="geometry" />
        </mxCell>
        <mxCell id="Zy91GWlYB5x9aroPrlM9-106" value="NoteBook" style="swimlane;fontStyle=0;childLayout=stackLayout;horizontal=1;startSize=30;horizontalStack=0;resizeParent=1;resizeParentMax=0;resizeLast=0;collapsible=1;marginBottom=0;whiteSpace=wrap;html=1;" vertex="1" parent="Zy91GWlYB5x9aroPrlM9-64">
          <mxGeometry x="80" y="80" width="140" height="630" as="geometry" />
        </mxCell>
        <mxCell id="Zy91GWlYB5x9aroPrlM9-107" value="- max_note_id" style="text;strokeColor=none;fillColor=none;align=left;verticalAlign=middle;spacingLeft=4;spacingRight=4;overflow=hidden;points=[[0,0.5],[1,0.5]];portConstraint=eastwest;rotatable=0;whiteSpace=wrap;html=1;" vertex="1" parent="Zy91GWlYB5x9aroPrlM9-106">
          <mxGeometry y="30" width="140" height="30" as="geometry" />
        </mxCell>
        <mxCell id="Zy91GWlYB5x9aroPrlM9-143" value="+ data" style="text;strokeColor=none;fillColor=none;align=left;verticalAlign=middle;spacingLeft=4;spacingRight=4;overflow=hidden;points=[[0,0.5],[1,0.5]];portConstraint=eastwest;rotatable=0;whiteSpace=wrap;html=1;" vertex="1" parent="Zy91GWlYB5x9aroPrlM9-106">
          <mxGeometry y="60" width="140" height="30" as="geometry" />
        </mxCell>
        <mxCell id="Zy91GWlYB5x9aroPrlM9-108" value="+ tags" style="text;strokeColor=none;fillColor=none;align=left;verticalAlign=middle;spacingLeft=4;spacingRight=4;overflow=hidden;points=[[0,0.5],[1,0.5]];portConstraint=eastwest;rotatable=0;whiteSpace=wrap;html=1;" vertex="1" parent="Zy91GWlYB5x9aroPrlM9-106">
          <mxGeometry y="90" width="140" height="30" as="geometry" />
        </mxCell>
        <mxCell id="Zy91GWlYB5x9aroPrlM9-109" value="- address_db_file" style="text;strokeColor=none;fillColor=none;align=left;verticalAlign=middle;spacingLeft=4;spacingRight=4;overflow=hidden;points=[[0,0.5],[1,0.5]];portConstraint=eastwest;rotatable=0;whiteSpace=wrap;html=1;" vertex="1" parent="Zy91GWlYB5x9aroPrlM9-106">
          <mxGeometry y="120" width="140" height="30" as="geometry" />
        </mxCell>
        <mxCell id="Zy91GWlYB5x9aroPrlM9-112" value="+ per_page" style="text;strokeColor=none;fillColor=none;align=left;verticalAlign=middle;spacingLeft=4;spacingRight=4;overflow=hidden;points=[[0,0.5],[1,0.5]];portConstraint=eastwest;rotatable=0;whiteSpace=wrap;html=1;" vertex="1" parent="Zy91GWlYB5x9aroPrlM9-106">
          <mxGeometry y="150" width="140" height="30" as="geometry" />
        </mxCell>
        <mxCell id="Zy91GWlYB5x9aroPrlM9-111" value="- get_max_note_id()" style="text;strokeColor=none;fillColor=none;align=left;verticalAlign=middle;spacingLeft=4;spacingRight=4;overflow=hidden;points=[[0,0.5],[1,0.5]];portConstraint=eastwest;rotatable=0;whiteSpace=wrap;html=1;" vertex="1" parent="Zy91GWlYB5x9aroPrlM9-106">
          <mxGeometry y="180" width="140" height="30" as="geometry" />
        </mxCell>
        <mxCell id="Zy91GWlYB5x9aroPrlM9-126" value="- paginate()" style="text;strokeColor=none;fillColor=none;align=left;verticalAlign=middle;spacingLeft=4;spacingRight=4;overflow=hidden;points=[[0,0.5],[1,0.5]];portConstraint=eastwest;rotatable=0;whiteSpace=wrap;html=1;" vertex="1" parent="Zy91GWlYB5x9aroPrlM9-106">
          <mxGeometry y="210" width="140" height="30" as="geometry" />
        </mxCell>
        <mxCell id="Zy91GWlYB5x9aroPrlM9-125" value="+ add_note()" style="text;strokeColor=none;fillColor=none;align=left;verticalAlign=middle;spacingLeft=4;spacingRight=4;overflow=hidden;points=[[0,0.5],[1,0.5]];portConstraint=eastwest;rotatable=0;whiteSpace=wrap;html=1;" vertex="1" parent="Zy91GWlYB5x9aroPrlM9-106">
          <mxGeometry y="240" width="140" height="30" as="geometry" />
        </mxCell>
        <mxCell id="Zy91GWlYB5x9aroPrlM9-124" value="+ del_note()" style="text;strokeColor=none;fillColor=none;align=left;verticalAlign=middle;spacingLeft=4;spacingRight=4;overflow=hidden;points=[[0,0.5],[1,0.5]];portConstraint=eastwest;rotatable=0;whiteSpace=wrap;html=1;" vertex="1" parent="Zy91GWlYB5x9aroPrlM9-106">
          <mxGeometry y="270" width="140" height="30" as="geometry" />
        </mxCell>
        <mxCell id="Zy91GWlYB5x9aroPrlM9-129" value="+ overwite_note()" style="text;strokeColor=none;fillColor=none;align=left;verticalAlign=middle;spacingLeft=4;spacingRight=4;overflow=hidden;points=[[0,0.5],[1,0.5]];portConstraint=eastwest;rotatable=0;whiteSpace=wrap;html=1;" vertex="1" parent="Zy91GWlYB5x9aroPrlM9-106">
          <mxGeometry y="300" width="140" height="30" as="geometry" />
        </mxCell>
        <mxCell id="Zy91GWlYB5x9aroPrlM9-128" value="+ add_tag()" style="text;strokeColor=none;fillColor=none;align=left;verticalAlign=middle;spacingLeft=4;spacingRight=4;overflow=hidden;points=[[0,0.5],[1,0.5]];portConstraint=eastwest;rotatable=0;whiteSpace=wrap;html=1;" vertex="1" parent="Zy91GWlYB5x9aroPrlM9-106">
          <mxGeometry y="330" width="140" height="30" as="geometry" />
        </mxCell>
        <mxCell id="Zy91GWlYB5x9aroPrlM9-132" value="+ del_tag()" style="text;strokeColor=none;fillColor=none;align=left;verticalAlign=middle;spacingLeft=4;spacingRight=4;overflow=hidden;points=[[0,0.5],[1,0.5]];portConstraint=eastwest;rotatable=0;whiteSpace=wrap;html=1;" vertex="1" parent="Zy91GWlYB5x9aroPrlM9-106">
          <mxGeometry y="360" width="140" height="30" as="geometry" />
        </mxCell>
        <mxCell id="Zy91GWlYB5x9aroPrlM9-131" value="+ untag_note()" style="text;strokeColor=none;fillColor=none;align=left;verticalAlign=middle;spacingLeft=4;spacingRight=4;overflow=hidden;points=[[0,0.5],[1,0.5]];portConstraint=eastwest;rotatable=0;whiteSpace=wrap;html=1;" vertex="1" parent="Zy91GWlYB5x9aroPrlM9-106">
          <mxGeometry y="390" width="140" height="30" as="geometry" />
        </mxCell>
        <mxCell id="Zy91GWlYB5x9aroPrlM9-130" value="+ clear_note_tags()" style="text;strokeColor=none;fillColor=none;align=left;verticalAlign=middle;spacingLeft=4;spacingRight=4;overflow=hidden;points=[[0,0.5],[1,0.5]];portConstraint=eastwest;rotatable=0;whiteSpace=wrap;html=1;" vertex="1" parent="Zy91GWlYB5x9aroPrlM9-106">
          <mxGeometry y="420" width="140" height="30" as="geometry" />
        </mxCell>
        <mxCell id="Zy91GWlYB5x9aroPrlM9-139" value="+ search()" style="text;strokeColor=none;fillColor=none;align=left;verticalAlign=middle;spacingLeft=4;spacingRight=4;overflow=hidden;points=[[0,0.5],[1,0.5]];portConstraint=eastwest;rotatable=0;whiteSpace=wrap;html=1;" vertex="1" parent="Zy91GWlYB5x9aroPrlM9-106">
          <mxGeometry y="450" width="140" height="30" as="geometry" />
        </mxCell>
        <mxCell id="Zy91GWlYB5x9aroPrlM9-138" value="+ search_by_id()" style="text;strokeColor=none;fillColor=none;align=left;verticalAlign=middle;spacingLeft=4;spacingRight=4;overflow=hidden;points=[[0,0.5],[1,0.5]];portConstraint=eastwest;rotatable=0;whiteSpace=wrap;html=1;" vertex="1" parent="Zy91GWlYB5x9aroPrlM9-106">
          <mxGeometry y="480" width="140" height="30" as="geometry" />
        </mxCell>
        <mxCell id="Zy91GWlYB5x9aroPrlM9-137" value="+ get_by_tag()" style="text;strokeColor=none;fillColor=none;align=left;verticalAlign=middle;spacingLeft=4;spacingRight=4;overflow=hidden;points=[[0,0.5],[1,0.5]];portConstraint=eastwest;rotatable=0;whiteSpace=wrap;html=1;" vertex="1" parent="Zy91GWlYB5x9aroPrlM9-106">
          <mxGeometry y="510" width="140" height="30" as="geometry" />
        </mxCell>
        <mxCell id="Zy91GWlYB5x9aroPrlM9-136" value="+ get_all()" style="text;strokeColor=none;fillColor=none;align=left;verticalAlign=middle;spacingLeft=4;spacingRight=4;overflow=hidden;points=[[0,0.5],[1,0.5]];portConstraint=eastwest;rotatable=0;whiteSpace=wrap;html=1;" vertex="1" parent="Zy91GWlYB5x9aroPrlM9-106">
          <mxGeometry y="540" width="140" height="30" as="geometry" />
        </mxCell>
        <mxCell id="Zy91GWlYB5x9aroPrlM9-135" value="+ save_to_file()" style="text;strokeColor=none;fillColor=none;align=left;verticalAlign=middle;spacingLeft=4;spacingRight=4;overflow=hidden;points=[[0,0.5],[1,0.5]];portConstraint=eastwest;rotatable=0;whiteSpace=wrap;html=1;" vertex="1" parent="Zy91GWlYB5x9aroPrlM9-106">
          <mxGeometry y="570" width="140" height="30" as="geometry" />
        </mxCell>
        <mxCell id="Zy91GWlYB5x9aroPrlM9-134" value="+ load_from_file()" style="text;strokeColor=none;fillColor=none;align=left;verticalAlign=middle;spacingLeft=4;spacingRight=4;overflow=hidden;points=[[0,0.5],[1,0.5]];portConstraint=eastwest;rotatable=0;whiteSpace=wrap;html=1;" vertex="1" parent="Zy91GWlYB5x9aroPrlM9-106">
          <mxGeometry y="600" width="140" height="30" as="geometry" />
        </mxCell>
        <mxCell id="Zy91GWlYB5x9aroPrlM9-96" style="edgeStyle=orthogonalEdgeStyle;rounded=0;orthogonalLoop=1;jettySize=auto;html=1;entryX=0.5;entryY=0;entryDx=0;entryDy=0;" edge="1" parent="Zy91GWlYB5x9aroPrlM9-64" target="Zy91GWlYB5x9aroPrlM9-73">
          <mxGeometry relative="1" as="geometry">
            <mxPoint x="440" y="450" as="sourcePoint" />
            <mxPoint x="700" y="530" as="targetPoint" />
            <Array as="points">
              <mxPoint x="440" y="490" />
              <mxPoint x="610" y="490" />
            </Array>
          </mxGeometry>
        </mxCell>
        <mxCell id="Zy91GWlYB5x9aroPrlM9-99" style="edgeStyle=orthogonalEdgeStyle;rounded=0;orthogonalLoop=1;jettySize=auto;html=1;entryX=0.5;entryY=0;entryDx=0;entryDy=0;" edge="1" parent="Zy91GWlYB5x9aroPrlM9-64" target="Zy91GWlYB5x9aroPrlM9-73">
          <mxGeometry relative="1" as="geometry">
            <mxPoint x="610" y="420" as="sourcePoint" />
            <mxPoint x="590" y="410" as="targetPoint" />
            <Array as="points">
              <mxPoint x="610" y="520" />
              <mxPoint x="610" y="520" />
            </Array>
          </mxGeometry>
        </mxCell>
        <mxCell id="Zy91GWlYB5x9aroPrlM9-100" value="" style="edgeStyle=orthogonalEdgeStyle;rounded=0;orthogonalLoop=1;jettySize=auto;html=1;entryX=0.5;entryY=0;entryDx=0;entryDy=0;" edge="1" parent="Zy91GWlYB5x9aroPrlM9-64" target="Zy91GWlYB5x9aroPrlM9-73">
          <mxGeometry relative="1" as="geometry">
            <mxPoint x="780" y="420" as="sourcePoint" />
            <mxPoint x="700" y="530" as="targetPoint" />
            <Array as="points">
              <mxPoint x="780" y="490" />
              <mxPoint x="610" y="490" />
            </Array>
          </mxGeometry>
        </mxCell>
        <mxCell id="Zy91GWlYB5x9aroPrlM9-140" value="UserDict" style="swimlane;fontStyle=0;childLayout=stackLayout;horizontal=1;startSize=30;horizontalStack=0;resizeParent=1;resizeParentMax=0;resizeLast=0;collapsible=1;marginBottom=0;whiteSpace=wrap;html=1;" vertex="1" parent="Zy91GWlYB5x9aroPrlM9-64">
          <mxGeometry x="280" y="80" width="140" height="60" as="geometry" />
        </mxCell>
        <mxCell id="Zy91GWlYB5x9aroPrlM9-141" value="" style="endArrow=classic;html=1;rounded=0;entryX=0;entryY=0.25;entryDx=0;entryDy=0;" edge="1" parent="Zy91GWlYB5x9aroPrlM9-64" target="Zy91GWlYB5x9aroPrlM9-140">
          <mxGeometry width="50" height="50" relative="1" as="geometry">
            <mxPoint x="220" y="95" as="sourcePoint" />
            <mxPoint x="510" y="-110" as="targetPoint" />
          </mxGeometry>
        </mxCell>
        <mxCell id="Zy91GWlYB5x9aroPrlM9-144" value="" style="endArrow=classic;html=1;rounded=0;exitX=-0.008;exitY=0.124;exitDx=0;exitDy=0;exitPerimeter=0;entryX=1;entryY=0.5;entryDx=0;entryDy=0;" edge="1" parent="Zy91GWlYB5x9aroPrlM9-64" source="Zy91GWlYB5x9aroPrlM9-92" target="Zy91GWlYB5x9aroPrlM9-143">
          <mxGeometry width="50" height="50" relative="1" as="geometry">
            <mxPoint x="340" y="330" as="sourcePoint" />
            <mxPoint x="390" y="280" as="targetPoint" />
            <Array as="points">
              <mxPoint x="250" y="205" />
              <mxPoint x="250" y="155" />
            </Array>
          </mxGeometry>
        </mxCell>
        <mxCell id="Zy91GWlYB5x9aroPrlM9-145" value="" style="endArrow=classic;html=1;rounded=0;exitX=-0.005;exitY=0.219;exitDx=0;exitDy=0;entryX=1;entryY=0.5;entryDx=0;entryDy=0;exitPerimeter=0;" edge="1" parent="Zy91GWlYB5x9aroPrlM9-64" source="Zy91GWlYB5x9aroPrlM9-77" target="Zy91GWlYB5x9aroPrlM9-108">
          <mxGeometry width="50" height="50" relative="1" as="geometry">
            <mxPoint x="340" y="330" as="sourcePoint" />
            <mxPoint x="390" y="280" as="targetPoint" />
            <Array as="points">
              <mxPoint x="240" y="380" />
              <mxPoint x="240" y="185" />
            </Array>
          </mxGeometry>
        </mxCell>
        <mxCell id="Zy91GWlYB5x9aroPrlM9-73" value="Field" style="swimlane;fontStyle=0;childLayout=stackLayout;horizontal=1;startSize=30;horizontalStack=0;resizeParent=1;resizeParentMax=0;resizeLast=0;collapsible=1;marginBottom=0;whiteSpace=wrap;html=1;" vertex="1" parent="Zy91GWlYB5x9aroPrlM9-64">
          <mxGeometry x="540" y="540" width="140" height="120" as="geometry" />
        </mxCell>
        <mxCell id="Zy91GWlYB5x9aroPrlM9-74" value="-&amp;nbsp;required" style="text;strokeColor=none;fillColor=none;align=left;verticalAlign=middle;spacingLeft=4;spacingRight=4;overflow=hidden;points=[[0,0.5],[1,0.5]];portConstraint=eastwest;rotatable=0;whiteSpace=wrap;html=1;" vertex="1" parent="Zy91GWlYB5x9aroPrlM9-73">
          <mxGeometry y="30" width="140" height="30" as="geometry" />
        </mxCell>
        <mxCell id="Zy91GWlYB5x9aroPrlM9-75" value="-&amp;nbsp;multi_field" style="text;strokeColor=none;fillColor=none;align=left;verticalAlign=middle;spacingLeft=4;spacingRight=4;overflow=hidden;points=[[0,0.5],[1,0.5]];portConstraint=eastwest;rotatable=0;whiteSpace=wrap;html=1;" vertex="1" parent="Zy91GWlYB5x9aroPrlM9-73">
          <mxGeometry y="60" width="140" height="30" as="geometry" />
        </mxCell>
        <mxCell id="Zy91GWlYB5x9aroPrlM9-76" value="-&amp;nbsp;value" style="text;strokeColor=none;fillColor=none;align=left;verticalAlign=middle;spacingLeft=4;spacingRight=4;overflow=hidden;points=[[0,0.5],[1,0.5]];portConstraint=eastwest;rotatable=0;whiteSpace=wrap;html=1;" vertex="1" parent="Zy91GWlYB5x9aroPrlM9-73">
          <mxGeometry y="90" width="140" height="30" as="geometry" />
        </mxCell>
        <mxCell id="Zy91GWlYB5x9aroPrlM9-146" value="" style="endArrow=classic;html=1;rounded=0;exitX=0.5;exitY=0;exitDx=0;exitDy=0;entryX=1;entryY=0.5;entryDx=0;entryDy=0;" edge="1" parent="Zy91GWlYB5x9aroPrlM9-64" source="Zy91GWlYB5x9aroPrlM9-86" target="Zy91GWlYB5x9aroPrlM9-105">
          <mxGeometry width="50" height="50" relative="1" as="geometry">
            <mxPoint x="470" y="340" as="sourcePoint" />
            <mxPoint x="520" y="290" as="targetPoint" />
            <Array as="points">
              <mxPoint x="610" y="265" />
            </Array>
          </mxGeometry>
        </mxCell>
        <mxCell id="Zy91GWlYB5x9aroPrlM9-147" value="" style="endArrow=classic;html=1;rounded=0;exitX=0.5;exitY=0;exitDx=0;exitDy=0;entryX=1;entryY=0.5;entryDx=0;entryDy=0;" edge="1" parent="Zy91GWlYB5x9aroPrlM9-64" source="Zy91GWlYB5x9aroPrlM9-89" target="Zy91GWlYB5x9aroPrlM9-93">
          <mxGeometry width="50" height="50" relative="1" as="geometry">
            <mxPoint x="470" y="340" as="sourcePoint" />
            <mxPoint x="520" y="290" as="targetPoint" />
            <Array as="points">
              <mxPoint x="780" y="235" />
            </Array>
          </mxGeometry>
        </mxCell>
        <mxCell id="Zy91GWlYB5x9aroPrlM9-148" value="Arrange_dir" style="swimlane;whiteSpace=wrap;html=1;" vertex="1" parent="WIyWlLk6GJQsqaUBKTNV-1">
          <mxGeometry x="-1590" y="2210" width="980" height="430" as="geometry" />
        </mxCell>
        <mxCell id="Zy91GWlYB5x9aroPrlM9-208" value="Arrange_dir" style="swimlane;fontStyle=0;childLayout=stackLayout;horizontal=1;startSize=30;horizontalStack=0;resizeParent=1;resizeParentMax=0;resizeLast=0;collapsible=1;marginBottom=0;whiteSpace=wrap;html=1;" vertex="1" parent="Zy91GWlYB5x9aroPrlM9-148">
          <mxGeometry x="410" y="70" width="140" height="300" as="geometry" />
        </mxCell>
        <mxCell id="Zy91GWlYB5x9aroPrlM9-209" value="+&amp;nbsp;arrange_dir()" style="text;strokeColor=none;fillColor=none;align=left;verticalAlign=middle;spacingLeft=4;spacingRight=4;overflow=hidden;points=[[0,0.5],[1,0.5]];portConstraint=eastwest;rotatable=0;whiteSpace=wrap;html=1;" vertex="1" parent="Zy91GWlYB5x9aroPrlM9-208">
          <mxGeometry y="30" width="140" height="30" as="geometry" />
        </mxCell>
        <mxCell id="Zy91GWlYB5x9aroPrlM9-210" value="+&amp;nbsp;main()" style="text;strokeColor=none;fillColor=none;align=left;verticalAlign=middle;spacingLeft=4;spacingRight=4;overflow=hidden;points=[[0,0.5],[1,0.5]];portConstraint=eastwest;rotatable=0;whiteSpace=wrap;html=1;" vertex="1" parent="Zy91GWlYB5x9aroPrlM9-208">
          <mxGeometry y="60" width="140" height="30" as="geometry" />
        </mxCell>
        <mxCell id="Zy91GWlYB5x9aroPrlM9-211" value="+&amp;nbsp;normalise_path()" style="text;strokeColor=none;fillColor=none;align=left;verticalAlign=middle;spacingLeft=4;spacingRight=4;overflow=hidden;points=[[0,0.5],[1,0.5]];portConstraint=eastwest;rotatable=0;whiteSpace=wrap;html=1;" vertex="1" parent="Zy91GWlYB5x9aroPrlM9-208">
          <mxGeometry y="90" width="140" height="30" as="geometry" />
        </mxCell>
        <mxCell id="Zy91GWlYB5x9aroPrlM9-215" value="+ print_report&lt;span style=&quot;background-color: initial;&quot;&gt;()&lt;/span&gt;" style="text;strokeColor=none;fillColor=none;align=left;verticalAlign=middle;spacingLeft=4;spacingRight=4;overflow=hidden;points=[[0,0.5],[1,0.5]];portConstraint=eastwest;rotatable=0;whiteSpace=wrap;html=1;" vertex="1" parent="Zy91GWlYB5x9aroPrlM9-208">
          <mxGeometry y="120" width="140" height="30" as="geometry" />
        </mxCell>
        <mxCell id="Zy91GWlYB5x9aroPrlM9-217" value="+&amp;nbsp;add_to_report()" style="text;strokeColor=none;fillColor=none;align=left;verticalAlign=middle;spacingLeft=4;spacingRight=4;overflow=hidden;points=[[0,0.5],[1,0.5]];portConstraint=eastwest;rotatable=0;whiteSpace=wrap;html=1;" vertex="1" parent="Zy91GWlYB5x9aroPrlM9-208">
          <mxGeometry y="150" width="140" height="30" as="geometry" />
        </mxCell>
        <mxCell id="Zy91GWlYB5x9aroPrlM9-220" value="+&amp;nbsp;unzip&lt;span style=&quot;background-color: initial;&quot;&gt;()&lt;/span&gt;" style="text;strokeColor=none;fillColor=none;align=left;verticalAlign=middle;spacingLeft=4;spacingRight=4;overflow=hidden;points=[[0,0.5],[1,0.5]];portConstraint=eastwest;rotatable=0;whiteSpace=wrap;html=1;" vertex="1" parent="Zy91GWlYB5x9aroPrlM9-208">
          <mxGeometry y="180" width="140" height="30" as="geometry" />
        </mxCell>
        <mxCell id="Zy91GWlYB5x9aroPrlM9-218" value="+&amp;nbsp;check_name()" style="text;strokeColor=none;fillColor=none;align=left;verticalAlign=middle;spacingLeft=4;spacingRight=4;overflow=hidden;points=[[0,0.5],[1,0.5]];portConstraint=eastwest;rotatable=0;whiteSpace=wrap;html=1;" vertex="1" parent="Zy91GWlYB5x9aroPrlM9-208">
          <mxGeometry y="210" width="140" height="30" as="geometry" />
        </mxCell>
        <mxCell id="Zy91GWlYB5x9aroPrlM9-219" value="+&amp;nbsp;normalize()" style="text;strokeColor=none;fillColor=none;align=left;verticalAlign=middle;spacingLeft=4;spacingRight=4;overflow=hidden;points=[[0,0.5],[1,0.5]];portConstraint=eastwest;rotatable=0;whiteSpace=wrap;html=1;" vertex="1" parent="Zy91GWlYB5x9aroPrlM9-208">
          <mxGeometry y="240" width="140" height="30" as="geometry" />
        </mxCell>
        <mxCell id="Zy91GWlYB5x9aroPrlM9-216" value="+&amp;nbsp;del_empy_dir&lt;span style=&quot;background-color: initial;&quot;&gt;()&lt;/span&gt;" style="text;strokeColor=none;fillColor=none;align=left;verticalAlign=middle;spacingLeft=4;spacingRight=4;overflow=hidden;points=[[0,0.5],[1,0.5]];portConstraint=eastwest;rotatable=0;whiteSpace=wrap;html=1;" vertex="1" parent="Zy91GWlYB5x9aroPrlM9-208">
          <mxGeometry y="270" width="140" height="30" as="geometry" />
        </mxCell>
        <mxCell id="Zy91GWlYB5x9aroPrlM9-221" value="" style="endArrow=classic;html=1;rounded=0;exitX=1;exitY=0.5;exitDx=0;exitDy=0;entryX=1.002;entryY=0.026;entryDx=0;entryDy=0;entryPerimeter=0;" edge="1" parent="WIyWlLk6GJQsqaUBKTNV-1" source="Zy91GWlYB5x9aroPrlM9-61" target="Zy91GWlYB5x9aroPrlM9-148">
          <mxGeometry width="50" height="50" relative="1" as="geometry">
            <mxPoint x="-1110" y="440" as="sourcePoint" />
            <mxPoint x="-1060" y="390" as="targetPoint" />
            <Array as="points">
              <mxPoint x="-440" y="225" />
              <mxPoint x="-440" y="1280" />
              <mxPoint x="-440" y="2221" />
            </Array>
          </mxGeometry>
        </mxCell>
        <mxCell id="Zy91GWlYB5x9aroPrlM9-222" value="" style="endArrow=classic;html=1;rounded=0;exitX=1;exitY=0.5;exitDx=0;exitDy=0;entryX=1.001;entryY=0.014;entryDx=0;entryDy=0;entryPerimeter=0;" edge="1" parent="WIyWlLk6GJQsqaUBKTNV-1" source="Zy91GWlYB5x9aroPrlM9-62" target="Zy91GWlYB5x9aroPrlM9-64">
          <mxGeometry width="50" height="50" relative="1" as="geometry">
            <mxPoint x="-810" y="420" as="sourcePoint" />
            <mxPoint x="-760" y="370" as="targetPoint" />
            <Array as="points">
              <mxPoint x="-480" y="255" />
              <mxPoint x="-480" y="870" />
              <mxPoint x="-480" y="1460" />
            </Array>
          </mxGeometry>
        </mxCell>
        <mxCell id="Zy91GWlYB5x9aroPrlM9-223" value="" style="endArrow=classic;html=1;rounded=0;exitX=1;exitY=0.5;exitDx=0;exitDy=0;entryX=1;entryY=0.011;entryDx=0;entryDy=0;entryPerimeter=0;" edge="1" parent="WIyWlLk6GJQsqaUBKTNV-1" source="Zy91GWlYB5x9aroPrlM9-63" target="Zy91GWlYB5x9aroPrlM9-0">
          <mxGeometry width="50" height="50" relative="1" as="geometry">
            <mxPoint x="-810" y="570" as="sourcePoint" />
            <mxPoint x="-760" y="520" as="targetPoint" />
            <Array as="points">
              <mxPoint x="-520" y="285" />
              <mxPoint x="-520" y="400" />
              <mxPoint x="-520" y="480" />
            </Array>
          </mxGeometry>
        </mxCell>
      </root>
    </mxGraphModel>
  </diagram>
</mxfile>
